<svg xmlns="http://www.w3.org/2000/svg" fill="none" viewBox="0.38 0.73 131.76 31.51">
  <path d="M13.082 8.778a5.542 5.542 0 0 0-1.78 1.912 8.677 8.677 0 0 0-.963 2.64 15.414 15.414 0 0 0-.287 2.992 17.06 17.06 0 0 0 .267 3.055c.168.955.478 1.88.922 2.743a5.375 5.375 0 0 0 1.802 2.034c.83.532 1.8.8 2.785.77a4.785 4.785 0 0 0 4.403-2.328c.942-1.552 1.413-3.645 1.413-6.277a14.108 14.108 0 0 0-.327-3.055 8.817 8.817 0 0 0-1.045-2.66 5.468 5.468 0 0 0-1.844-1.871 5.061 5.061 0 0 0-2.683-.685 4.739 4.739 0 0 0-2.662.726l-.001.004Zm9.481-6.775a13.481 13.481 0 0 1 4.874 3.491 14.98 14.98 0 0 1 2.91 5.01c.643 1.872.968 3.838.961 5.818a18.23 18.23 0 0 1-1.167 6.713 13.88 13.88 0 0 1-8.212 8.147 17.244 17.244 0 0 1-6.103 1.06 17.9 17.9 0 0 1-6.288-1.06 13.267 13.267 0 0 1-4.895-3.14 14.043 14.043 0 0 1-3.153-5.07A19.34 19.34 0 0 1 .384 16.24 17.61 17.61 0 0 1 1.49 9.9a13.657 13.657 0 0 1 8.09-8.084 17.467 17.467 0 0 1 6.246-1.08c2.31-.045 4.603.386 6.739 1.267M42.325 1.525h-8.52v29.927h8.52V1.525ZM54.325 1.525h-8.52v4.98h8.52v-4.98Z" fill="#30293D"></path>
  <path d="M132.145 24.926h-8.519v6.526h8.519v-6.526Z" fill="#CA304C"></path>
  <path d="M54.325 9.671h-8.52v21.78h8.52V9.671ZM56.497 9.672h8.52l3.767 13.757 3.728-13.757h8.191l-7.247 21.78h-9.507l-7.452-21.78ZM97.002 18.11a3.653 3.653 0 0 0-1.126-2.64 3.592 3.592 0 0 0-2.642-1.144 4.069 4.069 0 0 0-2.929.998 3.667 3.667 0 0 0-1.044 2.785h7.741Zm-7.74 4.405a4.087 4.087 0 0 0 1.249 3.075 4.129 4.129 0 0 0 2.97 1.208 3.77 3.77 0 0 0 1.903-.478 3.126 3.126 0 0 0 1.292-1.434h8.151a8.55 8.55 0 0 1-1.721 3.347 9.086 9.086 0 0 1-2.827 2.225c-1.108.56-2.285.972-3.5 1.226-1.26.265-2.544.397-3.831.395-1.635.014-3.26-.24-4.813-.749a11.233 11.233 0 0 1-3.89-2.202 9.966 9.966 0 0 1-2.582-3.575 11.881 11.881 0 0 1-.921-4.78c-.02-1.646.294-3.279.92-4.8a10.874 10.874 0 0 1 2.582-3.742 11.233 11.233 0 0 1 3.871-2.37 14.719 14.719 0 0 1 10.035.146c1.516.611 2.879 1.548 3.993 2.744a11.922 11.922 0 0 1 2.52 4.28c.589 1.77.88 3.624.86 5.488l-16.26-.004ZM108.104 9.672h7.741v4.406h.082c1.174-3.352 3.371-5.029 6.593-5.03.248.01.494.037.738.083l.368.042v8.646a4.908 4.908 0 0 0-.572-.082 6.2 6.2 0 0 0-1.189-.166c-1.802 0-3.126.484-3.972 1.454-.846.97-1.27 2.605-1.271 4.905v7.522h-8.519l.001-21.78Z" fill="#30293D"></path>
</svg>